<?xml version="1.0" encoding="utf-8"?>
<!-- Generator: Adobe Illustrator 26.0.1, SVG Export Plug-In . SVG Version: 6.00 Build 0)  -->
<svg version="1.0" id="Layer_1" xmlns="http://www.w3.org/2000/svg" xmlns:xlink="http://www.w3.org/1999/xlink" x="0px" y="0px"
	 viewBox="0 0 1080 1080" style="enable-background:new 0 0 1080 1080;" xml:space="preserve">
<style type="text/css">
	.st0{fill:url(#SVGID_1_);}
	.st1{fill:url(#SVGID_00000020396076785751354720000015252445888756212136_);}
	.st2{fill:url(#SVGID_00000157270184196625156650000018185476028480423096_);}
	.st3{fill:url(#SVGID_00000042717363228345219230000012490794305265388429_);}
	.st4{fill:url(#SVGID_00000159466446794448415650000011575455199284258467_);}
	.st5{fill:url(#SVGID_00000019658305688099293280000010507672488906119830_);}
	.st6{fill:url(#SVGID_00000149346003458685477590000006461012789069613995_);}
	.st7{fill:url(#SVGID_00000084503223645465641340000006273262198866068903_);}
	.st8{fill:url(#SVGID_00000036229349925404592620000012058606531369333152_);}
	.st9{fill:url(#SVGID_00000096742833439242400330000016307318850011142561_);}
	.st10{fill:url(#SVGID_00000076598391577432419690000009536003272653104785_);}
	.st11{fill:url(#SVGID_00000039124899455180243800000014179450633437293450_);}
	.st12{fill:url(#SVGID_00000072253966390159021580000009051305399490091147_);}
	.st13{fill:none;}
	.st14{font-family:'OCRAExtended';}
	.st15{font-size:92px;}
	.st16{font-family:'Montserrat-Regular';}
	.st17{font-size:40px;}
</style>
<g>
	<g>
		<path d="M579.75,695.17c-0.79-4.64-5.22-7.79-9.86-7.01l-71.65,12.13c-4.64,0.79-7.79,5.22-7.01,9.86l0.07,0.42
			c0.79,4.64,5.22,7.79,9.86,7.01l14.91-2.52c0.45,9.75,9.59,17.34,19.45,17.34c5.12,0,10.08-2.18,13.54-5.95
			c2.82-3.07,4.23-6.78,4.72-10.88c0.21-1.73,0.27-3.47,0.21-5.21c-0.02-0.49-0.3-1.49,0.12-1.74c0.12-0.07,0.37-0.06,0.5-0.08
			c1.27-0.21,2.53-0.43,3.8-0.64c3.54-0.6,7.08-1.2,10.61-1.8c1.26-0.21,2.53-0.43,3.79-0.64c4.64-0.79,7.79-5.22,7.01-9.86
			L579.75,695.17z"/>
		<path d="M587.37,666.03c-0.79-4.64-5.22-7.79-9.86-7.01l-93.7,15.86c-4.64,0.79-7.79,5.22-7.01,9.86l0.07,0.42
			c0.79,4.64,5.22,7.79,9.86,7.01l93.7-15.86c4.64-0.79,7.79-5.22,7.01-9.86L587.37,666.03z"/>
		<path d="M592.25,641.6c-0.85-2.3-5-2.97-5-2.97l-108.27,1.61c0,0-12.77,0.09-11.74,10.38c1.02,10.3,11.23,10.3,11.23,10.3
			l108.43-12.89C590.72,647.09,593.1,643.89,592.25,641.6z"/>
	</g>
	<g>
		<linearGradient id="SVGID_1_" gradientUnits="userSpaceOnUse" x1="379.3033" y1="618.0653" x2="375.2181" y2="171.7674">
			<stop  offset="0" style="stop-color:#F1942F"/>
			<stop  offset="0.2549" style="stop-color:#F1AD2B"/>
			<stop  offset="0.7496" style="stop-color:#F1DA25"/>
			<stop  offset="1" style="stop-color:#F1EB23"/>
		</linearGradient>
		<circle class="st0" cx="378.94" cy="577.97" r="6.64"/>
		
			<linearGradient id="SVGID_00000110466580732684358530000004802956822219293868_" gradientUnits="userSpaceOnUse" x1="347.0277" y1="618.3607" x2="342.9426" y2="172.0629">
			<stop  offset="0" style="stop-color:#F1942F"/>
			<stop  offset="0.2549" style="stop-color:#F1AD2B"/>
			<stop  offset="0.7496" style="stop-color:#F1DA25"/>
			<stop  offset="1" style="stop-color:#F1EB23"/>
		</linearGradient>
		<path style="fill:url(#SVGID_00000110466580732684358530000004802956822219293868_);" d="M368.89,489.12
			c4.14,0,7.49-3.35,7.49-7.49c0-4.14-3.35-7.49-7.49-7.49c-0.32,0-0.62,0.03-0.93,0.06l-2.91-6.64c1.92-1.53,3.16-3.88,3.16-6.53
			c0-4.61-3.73-8.34-8.34-8.34c-4.61,0-8.34,3.73-8.34,8.34c0,4.61,3.73,8.34,8.34,8.34c0.53,0,1.04-0.05,1.54-0.15l2.86,6.52
			c-1.74,1.37-2.87,3.5-2.87,5.89c0,1.05,0.22,2.04,0.6,2.94l-24.7,18.4c-2.32-2.35-5.53-3.81-9.09-3.81
			c-7.05,0-12.77,5.72-12.77,12.77c0,7.05,5.72,12.77,12.77,12.77c2.41,0,4.65-0.68,6.57-1.84l10.5,12.62
			c-0.25,0.55-0.4,1.16-0.4,1.81c0,2.44,1.98,4.43,4.43,4.43s4.43-1.98,4.43-4.43c0-2.44-1.98-4.43-4.43-4.43
			c-0.32,0-0.62,0.04-0.92,0.1l-10.55-12.68c1.94-2.24,3.13-5.16,3.13-8.36c0-2.05-0.49-3.98-1.35-5.7l24.89-18.54
			C365.75,488.58,367.26,489.12,368.89,489.12z"/>
		
			<linearGradient id="SVGID_00000146458752452930678970000001221117672662908839_" gradientUnits="userSpaceOnUse" x1="677.7593" y1="615.3334" x2="673.6741" y2="169.0356">
			<stop  offset="0" style="stop-color:#F1942F"/>
			<stop  offset="0.2549" style="stop-color:#F1AD2B"/>
			<stop  offset="0.7496" style="stop-color:#F1DA25"/>
			<stop  offset="1" style="stop-color:#F1EB23"/>
		</linearGradient>
		<path style="fill:url(#SVGID_00000146458752452930678970000001221117672662908839_);" d="M682.77,535.67
			c-0.08,0-0.15,0.01-0.23,0.01l-4.09-10.64c2.25-1.59,3.72-4.2,3.72-7.16c0-4.84-3.92-8.77-8.77-8.77s-8.77,3.92-8.77,8.77
			s3.92,8.77,8.77,8.77c0.45,0,0.9-0.05,1.33-0.11l4.04,10.5c-1.56,1.2-2.56,3.07-2.56,5.19c0,3.62,2.93,6.55,6.55,6.55
			s6.55-2.93,6.55-6.55C689.32,538.6,686.39,535.67,682.77,535.67z"/>
		
			<linearGradient id="SVGID_00000021098432083198048820000012622099417804335260_" gradientUnits="userSpaceOnUse" x1="712.4033" y1="615.0164" x2="708.3182" y2="168.7185">
			<stop  offset="0" style="stop-color:#F1942F"/>
			<stop  offset="0.2549" style="stop-color:#F1AD2B"/>
			<stop  offset="0.7496" style="stop-color:#F1DA25"/>
			<stop  offset="1" style="stop-color:#F1EB23"/>
		</linearGradient>
		<path style="fill:url(#SVGID_00000021098432083198048820000012622099417804335260_);" d="M710.94,448.61
			c-3.38,0-6.13,2.74-6.13,6.13s2.74,6.13,6.13,6.13c3.38,0,6.13-2.74,6.13-6.13S714.32,448.61,710.94,448.61z"/>
		
			<linearGradient id="SVGID_00000134954386611517941480000008178297532600087437_" gradientUnits="userSpaceOnUse" x1="746.383" y1="614.7053" x2="742.2979" y2="168.4074">
			<stop  offset="0" style="stop-color:#F1942F"/>
			<stop  offset="0.2549" style="stop-color:#F1AD2B"/>
			<stop  offset="0.7496" style="stop-color:#F1DA25"/>
			<stop  offset="1" style="stop-color:#F1EB23"/>
		</linearGradient>
		<circle style="fill:url(#SVGID_00000134954386611517941480000008178297532600087437_);" cx="744.64" cy="424.1" r="10.47"/>
		
			<linearGradient id="SVGID_00000170258882769616064380000016534257156677599132_" gradientUnits="userSpaceOnUse" x1="535.5566" y1="616.6351" x2="531.4716" y2="170.3372">
			<stop  offset="0" style="stop-color:#F1942F"/>
			<stop  offset="0.2549" style="stop-color:#F1AD2B"/>
			<stop  offset="0.7496" style="stop-color:#F1DA25"/>
			<stop  offset="1" style="stop-color:#F1EB23"/>
		</linearGradient>
		<path style="fill:url(#SVGID_00000170258882769616064380000016534257156677599132_);" d="M708.72,377.12
			c0-8.37-6.78-15.15-15.15-15.15c-4.41,0-8.37,1.9-11.14,4.9l-63.38-44.45c1.06-2.03,1.68-4.33,1.73-6.77l41.8-5.12
			c1.55,5,6.2,8.63,11.71,8.63c6.77,0,12.26-5.49,12.26-12.26s-5.49-12.26-12.26-12.26c-2.17,0-4.2,0.57-5.97,1.56L643.99,266
			c1.62-1.91,2.61-4.39,2.61-7.1c0-6.06-4.92-10.98-10.98-10.98s-10.98,4.92-10.98,10.98c0,0.39,0.02,0.78,0.06,1.16l-34.31,9.51
			c-1.87-4.18-6.07-7.1-10.95-7.1c-3.21,0-6.13,1.27-8.28,3.33l-42.97-32.04c0.21-0.46,0.4-0.93,0.54-1.42l25.75,1.77
			c0.63,6.6,6.19,11.77,12.96,11.77c7.19,0,13.02-5.83,13.02-13.02s-5.83-13.02-13.02-13.02c-6.25,0-11.47,4.41-12.73,10.28
			l-25.65-1.76c-0.59-4.94-4.78-8.77-9.88-8.77c-5.5,0-9.96,4.46-9.96,9.96c0,0.43,0.04,0.84,0.09,1.26l-50.93,16.17
			c-1.73-3.3-5.18-5.55-9.16-5.55c-5.71,0-10.34,4.63-10.34,10.34c0,4.1,2.39,7.62,5.84,9.3l-6.17,21.47
			c-0.27-0.02-0.55-0.04-0.82-0.04c-5.12,0-9.28,4.15-9.28,9.28c0,0.38,0.03,0.75,0.07,1.12l-21.9,7.14
			c-2.64-5.87-8.52-9.96-15.37-9.96c-9.31,0-16.85,7.54-16.85,16.85s7.54,16.85,16.85,16.85s16.85-7.54,16.85-16.85
			c0-1.05-0.11-2.07-0.29-3.07l22.04-7.18c1.6,2.58,4.43,4.31,7.67,4.37l3.6,20.2c-5.74,1.81-9.91,7.17-9.91,13.52
			c0,0.88,0.09,1.73,0.24,2.57l-45.39,14.49c-2.34-5.09-7.48-8.64-13.45-8.64c-8.18,0-14.81,6.63-14.81,14.81
			s6.63,14.81,14.81,14.81c4.42,0,8.39-1.95,11.1-5.03l38.62,25.62c-0.87,1.83-1.37,3.88-1.37,6.05c0,2.11,0.48,4.11,1.31,5.91
			l-35.07,21.84c-1.66-1.85-3.98-3.1-6.6-3.36l-2.96-24.98c3.53-1.31,6.04-4.7,6.04-8.69c0-5.12-4.15-9.28-9.28-9.28
			c-5.12,0-9.28,4.15-9.28,9.28c0,4.88,3.77,8.87,8.55,9.24l2.94,24.82c-4.19,1.28-7.23,5.17-7.23,9.77
			c0,5.64,4.57,10.21,10.21,10.21c3.59,0,6.74-1.86,8.56-4.66l73.55,28.67c-0.26,1.09-0.41,2.22-0.41,3.39
			c0,0.71,0.07,1.41,0.16,2.09l-40.11,10.83c-2.38-6.07-8.28-10.37-15.2-10.37c-9.02,0-16.34,7.32-16.34,16.34
			c0,9.02,7.32,16.34,16.34,16.34c2.9,0,5.61-0.76,7.97-2.08l28.82,39.7c-2.64,2.54-4.29,6.1-4.29,10.05
			c0,7.71,6.25,13.96,13.96,13.96c6.45,0,11.87-4.39,13.47-10.34l70.47,7.72c0.35,3.42,2.4,6.34,5.29,7.89l-7.14,21.64
			c-0.96-0.19-1.96-0.3-2.98-0.3c-7.12,0-13.07,5-14.55,11.67l-44.86-4.22c-0.08-1.08-0.31-2.12-0.68-3.1l18.24-11.38
			c1.48,1.36,3.45,2.19,5.62,2.19c4.61,0,8.34-3.73,8.34-8.34c0-4.61-3.73-8.34-8.34-8.34c-4.61,0-8.34,3.73-8.34,8.34
			c0,0.99,0.18,1.94,0.5,2.82l-18.07,11.27c-2.06-2.37-5.09-3.87-8.47-3.87c-6.2,0-11.23,5.03-11.23,11.23s5.03,11.23,11.23,11.23
			c5.11,0,9.41-3.41,10.78-8.08l44.95,4.23c0.39,7.89,6.89,14.17,14.88,14.17c8.24,0,14.91-6.68,14.91-14.91
			c0-0.12-0.02-0.24-0.02-0.35l48.29-8.34c1.55,3.85,5.31,6.57,9.71,6.57c5.78,0,10.47-4.69,10.47-10.47
			c0-5.78-4.69-10.47-10.47-10.47c-3.21,0-6.07,1.45-7.99,3.72l-40.35-22.69c0.33-0.99,0.51-2.05,0.51-3.16
			c0-0.49-0.05-0.97-0.12-1.45l51.3-19.57c1.54,2.78,3.9,5.04,6.76,6.48l-3.33,9c-0.54-0.09-1.1-0.15-1.66-0.15
			c-5.36,0-9.7,4.34-9.7,9.7c0,5.36,4.34,9.7,9.7,9.7c5.36,0,9.7-4.34,9.7-9.7c0-3.37-1.72-6.33-4.32-8.07l3.38-9.14
			c1.07,0.23,2.18,0.36,3.32,0.36c8.74,0,15.83-7.09,15.83-15.83s-7.09-15.83-15.83-15.83c-2.94,0-5.67,0.81-8.03,2.21l-8.21-10.49
			c2.57-2.66,4.15-6.28,4.15-10.27c0-1.06-0.12-2.1-0.33-3.1l46.42-17.54c2.33,4,6.65,6.69,11.61,6.69
			c7.43,0,13.45-6.02,13.45-13.45c0-7.43-6.02-13.45-13.45-13.45c-1.66,0-3.25,0.32-4.72,0.87l-19.42-34.24
			c4.42-3.42,7.28-8.77,7.28-14.8c0-2.61-0.54-5.09-1.5-7.35l32.63-18.81c1.99,2.51,4.77,4.36,7.95,5.21l-2.7,18.7
			c-0.01,0-0.02,0-0.03,0c-6.98,0-12.64,5.66-12.64,12.64s5.66,12.64,12.64,12.64c6.98,0,12.64-5.66,12.64-12.64
			c0-5.59-3.63-10.32-8.66-11.99l2.72-18.82C701.97,392.23,708.72,385.46,708.72,377.12z M680.14,370.14
			c-1.07,2.05-1.68,4.37-1.7,6.84l-76.6,8.6c-1.56-6.51-7.4-11.36-14.39-11.36c-3.3,0-6.34,1.09-8.8,2.92l-42.16-42.98
			c3.59-4.13,5.88-9.41,6.23-15.23l47.68-1.1c0.86,5.19,4.3,9.49,8.98,11.53l-2.67,8.76c-0.39-0.05-0.78-0.08-1.18-0.08
			c-5.5,0-9.96,4.46-9.96,9.96c0,5.5,4.46,9.96,9.96,9.96c5.5,0,9.96-4.46,9.96-9.96c0-3.69-2.01-6.9-4.99-8.62l2.72-8.93
			c0.74,0.11,1.49,0.19,2.27,0.19c4.46,0,8.47-1.92,11.27-4.96L680.14,370.14z M622.81,429.07l-23.93,58.38
			c-0.88-0.24-1.79-0.41-2.73-0.49l-5.55-83.47c3.61-0.79,6.71-2.89,8.81-5.77l15.07,8.03c-0.86,2.15-1.35,4.49-1.35,6.94
			C613.15,419.74,617.05,425.88,622.81,429.07z M551.35,555.79c-1.35-0.7-2.87-1.11-4.49-1.14l-11.92-59.78
			c3.71-1.32,6.74-4.06,8.44-7.57l36.97,11.91c-0.14,0.82-0.23,1.65-0.23,2.51c0,4.16,1.72,7.92,4.49,10.61L551.35,555.79z
			 M529.91,465.8c-6.76,0-12.47,4.48-14.33,10.63l-24.68-4.23c0.01-0.21,0.03-0.41,0.03-0.62c0-2.5-0.62-4.85-1.72-6.91l87.81-65.12
			c0.36,0.35,0.74,0.69,1.13,1.01l-41.83,66.7C534.39,466.33,532.22,465.8,529.91,465.8z M446.26,288.08l66.59-50.86
			c1.23,1.02,2.71,1.74,4.33,2.08l-1.22,52.49c-10.21,0.47-18.86,6.91-22.53,15.92l-46.45-14.99c0.03-0.32,0.05-0.64,0.05-0.96
			C447.02,290.45,446.75,289.21,446.26,288.08z M579.45,286.48c1.69,0,3.3-0.35,4.76-0.99l11.5,18.05
			c-3.03,2.51-5.07,6.17-5.46,10.3l-47.6,1.1c-0.35-3.68-1.47-7.13-3.21-10.19l31.57-21.74
			C573.18,285.15,576.16,286.48,579.45,286.48z M635.62,269.88c1.91,0,3.71-0.49,5.27-1.35l24.32,30.17
			c-1.89,2.09-3.06,4.84-3.15,7.86l-41.71,5.11c-0.86-3.51-2.93-6.54-5.74-8.63l17.94-33.6
			C633.52,269.72,634.55,269.88,635.62,269.88z M581.56,495.39l-36.93-11.89c0.16-0.89,0.26-1.79,0.26-2.73
			c0-4.53-2.02-8.59-5.21-11.34l41.9-66.81c1.56,0.67,3.26,1.07,5.04,1.17l5.54,83.37C587.46,488.07,583.55,491.18,581.56,495.39z
			 M481.43,457.77l7.25-33.23c0.41,0.03,0.81,0.06,1.23,0.06c8.93,0,16.17-7.24,16.17-16.17c0-0.33-0.03-0.65-0.05-0.97l67.49-13.43
			c0.29,0.82,0.65,1.6,1.08,2.34l-87.72,65.05C485.38,459.83,483.52,458.57,481.43,457.77z M572.69,390.12l-67.37,13.4
			c-1.39-4.35-4.57-7.89-8.67-9.78l15.34-51.28c1.67,0.34,3.4,0.52,5.16,0.52c6.28,0,12.03-2.26,16.48-6.01l42.14,42.96
			c-1.96,2.51-3.14,5.66-3.14,9.1C572.64,389.4,572.67,389.76,572.69,390.12z M568.68,279.76l-31.48,21.68
			c-4.15-5.21-10.27-8.77-17.25-9.53l1.22-52.61c1.76-0.36,3.34-1.18,4.63-2.33l42.97,32.04c-0.84,1.64-1.33,3.49-1.33,5.47
			C567.45,276.38,567.9,278.16,568.68,279.76z M508.14,341.36l-15.31,51.19c-0.95-0.17-1.92-0.28-2.92-0.28
			c-2.31,0-4.5,0.49-6.49,1.37l-28.98-47.99c3.13-2.6,5.13-6.52,5.13-10.91c0-0.39-0.03-0.77-0.06-1.15l33.34-8.07
			C495.31,332.82,500.96,338.66,508.14,341.36z M445.41,348.9c2,0,3.9-0.42,5.63-1.17l28.96,47.95c-2.66,2.07-4.65,4.96-5.61,8.29
			l-25.17-4.14c0-0.14,0.02-0.28,0.02-0.42c0-6.27-4.08-11.57-9.73-13.42L445.41,348.9z M448.54,403.77l25.23,4.15
			c-0.01,0.17-0.03,0.34-0.03,0.51c0,7.13,4.62,13.17,11.02,15.32l-7.23,33.09c-0.47-0.04-0.93-0.07-1.41-0.07
			c-1.91,0-3.73,0.37-5.41,1.03l-26.88-47.3C446.01,408.8,447.67,406.47,448.54,403.77z M625.85,263.9
			c0.75,1.47,1.83,2.74,3.13,3.73l-17.86,33.46c-1.74-0.69-3.64-1.08-5.63-1.08c-2.28,0-4.44,0.51-6.39,1.41l-11.55-18.11
			c2.39-2.19,3.89-5.33,3.89-8.83c0-0.35-0.02-0.69-0.05-1.03L625.85,263.9z M448.61,262.06c0.21,0.01,0.42,0.03,0.63,0.03
			c5.71,0,10.34-4.63,10.34-10.34c0-0.32-0.02-0.64-0.05-0.95l49.53-15.73l-65.15,49.76c-0.47-0.42-0.98-0.79-1.53-1.11
			L448.61,262.06z M441.47,300.25c1.77-0.78,3.24-2.09,4.23-3.74l46.51,15.01c-0.44,1.88-0.68,3.84-0.68,5.86
			c0,1.45,0.13,2.87,0.36,4.26l-33.26,8.05c-2.04-5.33-7.18-9.12-13.23-9.12c-0.11,0-0.21,0.01-0.31,0.02L441.47,300.25z
			 M385.95,364.42c0.95-1.95,1.49-4.13,1.49-6.45c0-0.8-0.08-1.58-0.2-2.34l45.51-14.53c1.75,3.48,4.89,6.13,8.69,7.24l-5.89,36.98
			c-0.15,0-0.3-0.02-0.45-0.02c-4.2,0-7.96,1.84-10.54,4.75L385.95,364.42z M389.66,435.81c0.11-0.6,0.17-1.21,0.17-1.84
			c0-1.18-0.21-2.31-0.58-3.36l35.21-21.92c2.59,2.97,6.39,4.86,10.65,4.86c1.86,0,3.64-0.37,5.27-1.03l26.86,47.25
			c-1.67,1.26-3.07,2.85-4.08,4.69L389.66,435.81z M462.57,477.53c2.29,5.22,7.5,8.86,13.56,8.86c2.44,0,4.74-0.6,6.77-1.65
			l12.13,17.54c-1.38,1.51-2.22,3.52-2.22,5.72c0,4.7,3.81,8.51,8.51,8.51c4.7,0,8.51-3.81,8.51-8.51c0-4.7-3.81-8.51-8.51-8.51
			c-1.05,0-2.05,0.2-2.98,0.55l-12.17-17.6c1.84-1.7,3.25-3.86,4.04-6.3l24.74,4.23c0,0.14-0.02,0.27-0.02,0.41
			c0,8.27,6.71,14.98,14.98,14.98c0.38,0,0.74-0.03,1.11-0.06l11.89,59.66c-1.63,0.65-3.05,1.7-4.13,3.04l-117.37-62.07
			c0.7-1.82,1.1-3.78,1.1-5.84c0-0.71-0.06-1.4-0.15-2.09L462.57,477.53z M417.36,502.36c0.81-0.76,1.54-1.6,2.18-2.5l117.13,61.95
			l-70.1-7.68c-0.19-7.54-6.35-13.6-13.94-13.6c-2.32,0-4.5,0.57-6.42,1.57L417.36,502.36z M594.69,594.11
			c-0.33,1.02-0.52,2.1-0.52,3.23l-48.15,8.32c-1.18-3.92-3.94-7.15-7.53-8.98l7.2-21.82c0.32,0.03,0.64,0.05,0.97,0.05
			c3.06,0,5.79-1.36,7.65-3.5L594.69,594.11z M555.34,559.56c-0.26-0.44-0.55-0.86-0.88-1.26l33.37-43.6
			c2.11,1.16,4.53,1.81,7.1,1.81c2.75,0,5.31-0.76,7.52-2.06l8.18,10.45c-2.86,2.86-4.63,6.82-4.63,11.18
			c0,1.36,0.19,2.68,0.51,3.94L555.34,559.56z M659.24,463.68c-3.18,2.46-5.24,6.3-5.24,10.63c0,1.05,0.13,2.06,0.36,3.04
			l-46.31,17.5c-1.26-2.41-3.17-4.41-5.49-5.81l23.94-58.41c1.7,0.51,3.5,0.79,5.37,0.79c2.88,0,5.59-0.67,8.03-1.83L659.24,463.68z
			 M647.13,401.86c-3.39-4.77-8.95-7.89-15.26-7.89c-6.46,0-12.15,3.27-15.51,8.24l-15.05-8.01c0.54-1.45,0.86-3.01,0.92-4.63
			l76.71-8.61c0.19,0.74,0.43,1.46,0.73,2.15L647.13,401.86z"/>
		
			<linearGradient id="SVGID_00000053530670615246485220000000846483810099677880_" gradientUnits="userSpaceOnUse" x1="739.1006" y1="614.772" x2="735.0155" y2="168.4741">
			<stop  offset="0" style="stop-color:#F1942F"/>
			<stop  offset="0.2549" style="stop-color:#F1AD2B"/>
			<stop  offset="0.7496" style="stop-color:#F1DA25"/>
			<stop  offset="1" style="stop-color:#F1EB23"/>
		</linearGradient>
		<path style="fill:url(#SVGID_00000053530670615246485220000000846483810099677880_);" d="M755.11,281.88
			c-6.35,0-11.49,5.14-11.49,11.49c0,1.49,0.29,2.92,0.81,4.23l-29.9,17.56c-0.91-0.76-2.06-1.23-3.34-1.23
			c-2.89,0-5.23,2.34-5.23,5.23c0,2.52,1.79,4.63,4.16,5.12l1.99,13.24c-2.03,0.99-3.43,3.06-3.43,5.47c0,3.36,2.72,6.09,6.09,6.09
			s6.09-2.72,6.09-6.09c0-2.91-2.04-5.34-4.77-5.94l-2.03-13.52c1.43-0.94,2.37-2.54,2.37-4.37c0-0.15-0.03-0.3-0.05-0.45
			L746.53,301c2.1,2.36,5.16,3.86,8.57,3.86c6.35,0,11.49-5.14,11.49-11.49S761.45,281.88,755.11,281.88z"/>
		
			<linearGradient id="SVGID_00000083077469777913925240000009212218042348121245_" gradientUnits="userSpaceOnUse" x1="719.8785" y1="614.9479" x2="715.7934" y2="168.65">
			<stop  offset="0" style="stop-color:#F1942F"/>
			<stop  offset="0.2549" style="stop-color:#F1AD2B"/>
			<stop  offset="0.7496" style="stop-color:#F1DA25"/>
			<stop  offset="1" style="stop-color:#F1EB23"/>
		</linearGradient>
		<circle style="fill:url(#SVGID_00000083077469777913925240000009212218042348121245_);" cx="716.43" cy="237.71" r="8.17"/>
		
			<linearGradient id="SVGID_00000079479877321948604620000011887192013651748798_" gradientUnits="userSpaceOnUse" x1="660.0556" y1="615.4955" x2="655.9706" y2="169.215">
			<stop  offset="0" style="stop-color:#F1942F"/>
			<stop  offset="0.2549" style="stop-color:#F1AD2B"/>
			<stop  offset="0.7496" style="stop-color:#F1DA25"/>
			<stop  offset="1" style="stop-color:#F1EB23"/>
		</linearGradient>
		<circle style="fill:url(#SVGID_00000079479877321948604620000011887192013651748798_);" cx="656.55" cy="232.86" r="9.7"/>
		
			<linearGradient id="SVGID_00000012451349355948166160000013629109068684690866_" gradientUnits="userSpaceOnUse" x1="394.7522" y1="617.9239" x2="390.6671" y2="171.626">
			<stop  offset="0" style="stop-color:#F1942F"/>
			<stop  offset="0.2549" style="stop-color:#F1AD2B"/>
			<stop  offset="0.7496" style="stop-color:#F1DA25"/>
			<stop  offset="1" style="stop-color:#F1EB23"/>
		</linearGradient>
		<circle style="fill:url(#SVGID_00000012451349355948166160000013629109068684690866_);" cx="391.28" cy="238.22" r="7.66"/>
		
			<linearGradient id="SVGID_00000137118442666650666290000009544762301891816594_" gradientUnits="userSpaceOnUse" x1="341.2397" y1="618.4137" x2="337.1546" y2="172.1158">
			<stop  offset="0" style="stop-color:#F1942F"/>
			<stop  offset="0.2549" style="stop-color:#F1AD2B"/>
			<stop  offset="0.7496" style="stop-color:#F1DA25"/>
			<stop  offset="1" style="stop-color:#F1EB23"/>
		</linearGradient>
		<path style="fill:url(#SVGID_00000137118442666650666290000009544762301891816594_);" d="M320.81,338.05
			c4.05,0,7.34-3.26,7.4-7.29l28.76-8.51c0.71,0.61,1.63,1,2.65,1c1.86,0,3.4-1.24,3.9-2.94l0.01,0l-0.01-0.01
			c0.11-0.36,0.18-0.74,0.18-1.14c0-2.26-1.83-4.09-4.09-4.09c-0.33,0-0.65,0.05-0.95,0.12l-9.74-10.22
			c1.58-2.09,2.53-4.69,2.53-7.52c0-6.91-5.6-12.51-12.51-12.51c-6.91,0-12.51,5.6-12.51,12.51s5.6,12.51,12.51,12.51
			c2.64,0,5.09-0.82,7.1-2.22l9.7,10.18c-0.06,0.18-0.11,0.36-0.14,0.55l-28.42,8.41c-1.29-2.18-3.66-3.65-6.37-3.65
			c-4.09,0-7.4,3.32-7.4,7.4C313.4,334.74,316.72,338.05,320.81,338.05z"/>
		
			<linearGradient id="SVGID_00000070092083774393458990000014203787548622587570_" gradientUnits="userSpaceOnUse" x1="551.8642" y1="616.4858" x2="547.7791" y2="170.1879">
			<stop  offset="0" style="stop-color:#F1942F"/>
			<stop  offset="0.2549" style="stop-color:#F1AD2B"/>
			<stop  offset="0.7496" style="stop-color:#F1DA25"/>
			<stop  offset="1" style="stop-color:#F1EB23"/>
		</linearGradient>
		<circle style="fill:url(#SVGID_00000070092083774393458990000014203787548622587570_);" cx="547.79" cy="171.07" r="7.79"/>
		
			<linearGradient id="SVGID_00000154398442577070273770000004794271223721912472_" gradientUnits="userSpaceOnUse" x1="325.2416" y1="618.5601" x2="321.1565" y2="172.2623">
			<stop  offset="0" style="stop-color:#F1942F"/>
			<stop  offset="0.2549" style="stop-color:#F1AD2B"/>
			<stop  offset="0.7496" style="stop-color:#F1DA25"/>
			<stop  offset="1" style="stop-color:#F1EB23"/>
		</linearGradient>
		<circle style="fill:url(#SVGID_00000154398442577070273770000004794271223721912472_);" cx="323.11" cy="385.29" r="8.68"/>
	</g>
</g>
<rect x="371.64" y="775.55" class="st13" width="336.73" height="73.53"/>
<text transform="matrix(1 0 0 1 371.6355 835.2598)" class="st14 st15">E-CELL</text>
<rect x="398.51" y="874.11" class="st13" width="282.97" height="44.43"/>
<text transform="matrix(1 0 0 1 441.8816 902.5054)" class="st16 st17">IIIT Sonepat</text>
</svg>
