<svg id="Layer_1" data-name="Layer 1" xmlns="http://www.w3.org/2000/svg" xmlns:xlink="http://www.w3.org/1999/xlink" viewBox="0 0 453.19 569.12"><defs><style>.cls-1{fill:url(#linear-gradient);}.cls-2{fill:url(#linear-gradient-2);}.cls-3{fill:url(#linear-gradient-3);}.cls-4{fill:url(#linear-gradient-4);}.cls-5{fill:url(#linear-gradient-5);}.cls-6{fill:url(#linear-gradient-6);}.cls-7{fill:url(#linear-gradient-7);}.cls-8{fill:url(#linear-gradient-8);}.cls-9{fill:url(#linear-gradient-9);}.cls-10{fill:url(#linear-gradient-10);}.cls-11{fill:url(#linear-gradient-11);}.cls-12{fill:url(#linear-gradient-12);}.cls-13{fill:url(#linear-gradient-13);}</style><linearGradient id="linear-gradient" x1="65.9" y1="454.78" x2="61.81" y2="8.48" gradientUnits="userSpaceOnUse"><stop offset="0" stop-color="#f1942f"/><stop offset="0.25" stop-color="#f1ad2b"/><stop offset="0.75" stop-color="#f1da25"/><stop offset="1" stop-color="#f1eb23"/></linearGradient><linearGradient id="linear-gradient-2" x1="347.03" y1="618.36" x2="342.94" y2="172.06" xlink:href="#linear-gradient"/><linearGradient id="linear-gradient-3" x1="677.76" y1="615.33" x2="673.67" y2="169.04" xlink:href="#linear-gradient"/><linearGradient id="linear-gradient-4" x1="712.4" y1="615.02" x2="708.32" y2="168.72" xlink:href="#linear-gradient"/><linearGradient id="linear-gradient-5" x1="432.98" y1="451.42" x2="428.89" y2="5.12" xlink:href="#linear-gradient"/><linearGradient id="linear-gradient-6" x1="535.56" y1="616.64" x2="531.47" y2="170.34" xlink:href="#linear-gradient"/><linearGradient id="linear-gradient-7" x1="739.1" y1="614.77" x2="735.02" y2="168.47" xlink:href="#linear-gradient"/><linearGradient id="linear-gradient-8" x1="406.47" y1="451.66" x2="402.39" y2="5.36" xlink:href="#linear-gradient"/><linearGradient id="linear-gradient-9" x1="346.65" y1="452.21" x2="342.57" y2="5.93" xlink:href="#linear-gradient"/><linearGradient id="linear-gradient-10" x1="394.75" y1="617.92" x2="390.67" y2="171.63" gradientTransform="translate(65.2 -83.52) rotate(13.28)" xlink:href="#linear-gradient"/><linearGradient id="linear-gradient-11" x1="341.24" y1="618.41" x2="337.15" y2="172.12" xlink:href="#linear-gradient"/><linearGradient id="linear-gradient-12" x1="238.46" y1="453.2" x2="234.37" y2="6.9" xlink:href="#linear-gradient"/><linearGradient id="linear-gradient-13" x1="11.84" y1="455.27" x2="7.75" y2="8.98" xlink:href="#linear-gradient"/></defs><path d="M579.75,695.17a8.57,8.57,0,0,0-9.86-7L498.24,700.3a8.58,8.58,0,0,0-7,9.86l.08.42a8.58,8.58,0,0,0,9.86,7l14.9-2.53c.45,9.76,9.59,17.34,19.46,17.34a18.53,18.53,0,0,0,13.54-5.94,19,19,0,0,0,4.72-10.89,33.59,33.59,0,0,0,.2-5.21c0-.49-.29-1.49.12-1.74a1.69,1.69,0,0,1,.5-.08l3.8-.64L569,706.1l3.8-.64a8.58,8.58,0,0,0,7-9.86Z" transform="translate(-313.4 -163.29)"/><rect x="476.06" y="666.83" width="112.14" height="17.54" rx="8.55" transform="translate(-418.71 -64.98) rotate(-9.61)"/><path d="M592.25,641.6c-.85-2.3-5-3-5-3L479,640.23s-12.77.09-11.75,10.39,11.23,10.29,11.23,10.29L586.89,648C590.72,647.09,593.1,643.89,592.25,641.6Z" transform="translate(-313.4 -163.29)"/><circle class="cls-1" cx="65.53" cy="414.68" r="6.64"/><path class="cls-2" d="M368.89,489.12a7.49,7.49,0,0,0,0-15,7.26,7.26,0,0,0-.93.06l-2.91-6.64a8.33,8.33,0,1,0-5.18,1.81,7.91,7.91,0,0,0,1.55-.15l2.85,6.52a7.49,7.49,0,0,0-2.87,5.89,7.4,7.4,0,0,0,.61,2.94L337.3,503a12.77,12.77,0,1,0-2.51,19.88l10.5,12.63a4.36,4.36,0,0,0-.4,1.81,4.43,4.43,0,1,0,4.43-4.43,4.63,4.63,0,0,0-.92.1l-10.55-12.68a12.7,12.7,0,0,0,1.78-14l24.88-18.54A7.5,7.5,0,0,0,368.89,489.12Z" transform="translate(-313.4 -163.29)"/><path class="cls-3" d="M682.77,535.67h-.23L678.45,525a8.75,8.75,0,1,0-5.05,1.61,9.82,9.82,0,0,0,1.34-.11l4,10.49a6.55,6.55,0,1,0,4-1.36Z" transform="translate(-313.4 -163.29)"/><path class="cls-4" d="M710.94,448.61a6.13,6.13,0,1,0,6.12,6.12A6.12,6.12,0,0,0,710.94,448.61Z" transform="translate(-313.4 -163.29)"/><circle class="cls-5" cx="431.23" cy="260.81" r="10.47"/><path class="cls-6" d="M708.72,377.12a15.13,15.13,0,0,0-26.28-10.25l-63.38-44.45a15.14,15.14,0,0,0,1.73-6.77l41.8-5.12a12.27,12.27,0,1,0,5.74-14.32L644,266a11,11,0,1,0-19.35-7.1,11.31,11.31,0,0,0,.06,1.17l-34.31,9.51a12,12,0,0,0-19.22-3.77l-43-32.05a9.26,9.26,0,0,0,.54-1.42l25.75,1.78a13,13,0,1,0,.23-4l-25.65-1.76a10,10,0,0,0-19.84,1.18,10.38,10.38,0,0,0,.09,1.26L458.39,247a10.33,10.33,0,1,0-13.66,14.08l-6.16,21.47c-.27,0-.55,0-.83,0a9.27,9.27,0,0,0-9.27,9.27,10.2,10.2,0,0,0,.07,1.12L406.64,300a16.82,16.82,0,1,0,1.49,6.89,16.39,16.39,0,0,0-.3-3.07l22-7.18a9.28,9.28,0,0,0,7.67,4.37l3.6,20.2a14.17,14.17,0,0,0-9.91,13.51,14.45,14.45,0,0,0,.25,2.57l-45.39,14.49a14.82,14.82,0,1,0-2.35,16l38.61,25.62a14,14,0,0,0-.06,12l-35.07,21.83a10.16,10.16,0,0,0-6.6-3.35l-3-25a9.26,9.26,0,1,0-4,.56l2.95,24.82a10.21,10.21,0,1,0,11.54,15.32l73.55,28.67a14.57,14.57,0,0,0-.41,3.39,16.08,16.08,0,0,0,.16,2.1l-40.11,10.83a16.35,16.35,0,1,0-7.23,20.22L443,544.43A13.95,13.95,0,1,0,466.1,558.1l70.48,7.72a10.1,10.1,0,0,0,5.29,7.89l-7.15,21.64a15.26,15.26,0,0,0-3-.3,14.91,14.91,0,0,0-14.55,11.68l-44.86-4.22a11.35,11.35,0,0,0-.67-3.1L489.91,588a8.39,8.39,0,1,0-2.22-3.33L469.62,596a11.22,11.22,0,1,0,2.31,10.52l44.94,4.22a14.9,14.9,0,0,0,29.79-.74c0-.12,0-.24,0-.36l48.29-8.34a10.47,10.47,0,1,0,1.71-10.65l-40.35-22.69a10,10,0,0,0,.51-3.15,9.78,9.78,0,0,0-.12-1.45L608,543.75a15.81,15.81,0,0,0,6.75,6.48l-3.32,9a9.18,9.18,0,0,0-1.67-.16,9.72,9.72,0,1,0,5.39,1.64l3.38-9.14a15.83,15.83,0,1,0-4.71-29.1L605.59,512a14.73,14.73,0,0,0,4.15-10.27,14.43,14.43,0,0,0-.33-3.1l46.43-17.54a13.46,13.46,0,1,0,6.89-19.34l-19.42-34.24a18.69,18.69,0,0,0,5.79-22.15l32.62-18.81a15.18,15.18,0,0,0,7.95,5.21l-2.7,18.7h0a12.65,12.65,0,1,0,4,.65l2.72-18.83A15.14,15.14,0,0,0,708.72,377.12Zm-28.58-7a15,15,0,0,0-1.71,6.84l-76.6,8.6a14.77,14.77,0,0,0-23.19-8.44l-42.16-43a25.51,25.51,0,0,0,6.23-15.23l47.68-1.1a15.35,15.35,0,0,0,9,11.53l-2.66,8.76a9.23,9.23,0,0,0-1.18-.08,10,10,0,1,0,5,1.34l2.72-8.93a15.56,15.56,0,0,0,2.27.19,15.26,15.26,0,0,0,11.27-5Zm-57.33,58.93-23.92,58.38a14.44,14.44,0,0,0-2.73-.48l-5.55-83.48a14.75,14.75,0,0,0,8.81-5.77l15.07,8a18.7,18.7,0,0,0,8.32,23.32ZM551.35,555.79a10.12,10.12,0,0,0-4.49-1.14l-11.92-59.78a15,15,0,0,0,8.44-7.57l37,11.91a14.59,14.59,0,0,0,4.26,13.11Zm-21.44-90a15,15,0,0,0-14.33,10.63l-24.68-4.22c0-.21,0-.42,0-.63a14.8,14.8,0,0,0-1.72-6.91L577,399.55c.36.36.74.69,1.13,1l-41.82,66.7A14.87,14.87,0,0,0,529.91,465.8ZM446.26,288.08l66.59-50.86a9.91,9.91,0,0,0,4.33,2.07L516,291.79a25.59,25.59,0,0,0-22.52,15.91l-46.46-15c0-.32,0-.64,0-1A9.2,9.2,0,0,0,446.26,288.08Zm133.19-1.6a12,12,0,0,0,4.76-1l11.5,18.05a15.27,15.27,0,0,0-5.46,10.3l-47.6,1.1a25.6,25.6,0,0,0-3.21-10.19L571,283A12,12,0,0,0,579.45,286.48Zm56.17-16.6a10.89,10.89,0,0,0,5.27-1.35l24.32,30.18a12.15,12.15,0,0,0-3.15,7.86l-41.71,5.1a15.31,15.31,0,0,0-5.74-8.63l17.94-33.6A11.06,11.06,0,0,0,635.62,269.88ZM581.56,495.39,544.63,483.5a14.34,14.34,0,0,0,.26-2.72,14.94,14.94,0,0,0-5.2-11.34l41.89-66.81a14.86,14.86,0,0,0,5,1.17l5.54,83.37A14.83,14.83,0,0,0,581.56,495.39ZM481.43,457.77l7.26-33.23c.4,0,.81.07,1.22.07a16.17,16.17,0,0,0,16.18-16.17c0-.33,0-.65,0-1L573.52,394a15.49,15.49,0,0,0,1.08,2.34l-87.72,65.05A14.65,14.65,0,0,0,481.43,457.77Zm91.26-67.65-67.37,13.41a16.16,16.16,0,0,0-8.67-9.78L512,342.47a25.9,25.9,0,0,0,5.17.52,25.44,25.44,0,0,0,16.48-6l42.15,43a14.72,14.72,0,0,0-3.14,9.09C572.64,389.4,572.67,389.76,572.69,390.12Zm-4-110.36L537.2,301.44A25.6,25.6,0,0,0,520,291.91l1.23-52.61a9.89,9.89,0,0,0,4.63-2.33l43,32a12,12,0,0,0-.09,10.75Zm-60.54,61.6-15.31,51.18a16.43,16.43,0,0,0-2.92-.27,16.15,16.15,0,0,0-6.49,1.36l-29-48a14.12,14.12,0,0,0,5.13-10.91c0-.39,0-.77-.05-1.15l33.34-8.07A25.7,25.7,0,0,0,508.14,341.36Zm-62.73,7.54a14.19,14.19,0,0,0,5.62-1.16l29,47.95a16.17,16.17,0,0,0-5.61,8.28l-25.17-4.14c0-.14,0-.28,0-.42A14.13,14.13,0,0,0,439.5,386Zm3.13,54.87,25.23,4.16c0,.17,0,.33,0,.51a16.16,16.16,0,0,0,11,15.31l-7.22,33.1a13.31,13.31,0,0,0-1.41-.07,14.75,14.75,0,0,0-5.41,1l-26.89-47.3A14,14,0,0,0,448.54,403.77ZM625.85,263.9a11,11,0,0,0,3.13,3.73l-17.86,33.46a15.2,15.2,0,0,0-12,.33l-11.55-18.11a12,12,0,0,0,3.9-8.83c0-.35,0-.69-.05-1Zm-177.24-1.84c.2,0,.41,0,.62,0a10.34,10.34,0,0,0,10.34-10.35c0-.32,0-.63,0-.94l49.53-15.73-65.15,49.76a9.33,9.33,0,0,0-1.53-1.11Zm-7.14,38.19a9.37,9.37,0,0,0,4.23-3.74l46.51,15a25.66,25.66,0,0,0-.68,5.85,26,26,0,0,0,.36,4.26l-33.26,8.05a14.16,14.16,0,0,0-13.23-9.12l-.31,0ZM386,364.42a14.7,14.7,0,0,0,1.5-6.45,14.06,14.06,0,0,0-.21-2.35l45.51-14.53a14.19,14.19,0,0,0,8.7,7.24l-5.89,37-.45,0A14.08,14.08,0,0,0,424.56,390Zm3.71,71.39a11.14,11.14,0,0,0,.17-1.84,10.09,10.09,0,0,0-.58-3.36l35.21-21.93a14.09,14.09,0,0,0,15.91,3.84l26.86,47.25a14.68,14.68,0,0,0-4.08,4.68Zm72.91,41.72a14.78,14.78,0,0,0,20.33,7.21L495,502.29a8.58,8.58,0,1,0,3.31-2.24l-12.17-17.61a14.81,14.81,0,0,0,4.05-6.3L515,480.37c0,.13,0,.27,0,.41a15,15,0,0,0,15,15c.38,0,.75,0,1.12-.05l11.89,59.66a10.11,10.11,0,0,0-4.13,3L421.42,496.32a16.38,16.38,0,0,0,1.09-5.84,15.94,15.94,0,0,0-.15-2.09Zm-45.21,24.83a16.7,16.7,0,0,0,2.18-2.5L536.67,561.8l-70.09-7.67a14,14,0,0,0-13.94-13.61,13.81,13.81,0,0,0-6.43,1.58Zm177.33,91.75a10.46,10.46,0,0,0-.52,3.23L546,605.66a14.94,14.94,0,0,0-7.52-9l7.2-21.81c.31,0,.63,0,1,0a10.1,10.1,0,0,0,7.65-3.5Zm-39.35-34.55a9.82,9.82,0,0,0-.88-1.26l33.37-43.59a14.79,14.79,0,0,0,14.62-.25l8.18,10.45A15.73,15.73,0,0,0,606.51,540Zm103.9-95.88A13.4,13.4,0,0,0,654,474.31a13.24,13.24,0,0,0,.36,3l-46.31,17.5a14.82,14.82,0,0,0-5.49-5.81l23.94-58.42a18.63,18.63,0,0,0,13.4-1Zm-12.11-61.82a18.71,18.71,0,0,0-30.77.35l-15.05-8a14.78,14.78,0,0,0,.92-4.63l76.7-8.61a15.53,15.53,0,0,0,.73,2.15Z" transform="translate(-313.4 -163.29)"/><path class="cls-7" d="M755.11,281.88a11.48,11.48,0,0,0-10.68,15.72l-29.9,17.56a5.22,5.22,0,1,0-4.41,9.12l2,13.24a6.08,6.08,0,1,0,4-.47l-2-13.52a5.21,5.21,0,0,0,2.38-4.37c0-.16,0-.3,0-.45L746.53,301a11.49,11.49,0,1,0,8.58-19.12Z" transform="translate(-313.4 -163.29)"/><circle class="cls-8" cx="403.02" cy="74.43" r="8.17"/><circle class="cls-9" cx="343.15" cy="69.57" r="9.7"/><circle class="cls-10" cx="391.28" cy="238.22" r="7.66" transform="translate(-357.67 -67.02) rotate(-13.28)"/><path class="cls-11" d="M320.81,338.05a7.4,7.4,0,0,0,7.4-7.29L357,322.25a4.05,4.05,0,0,0,6.55-1.94h0a3.82,3.82,0,0,0,.18-1.13,4.09,4.09,0,0,0-4.08-4.09,3.83,3.83,0,0,0-1,.13L348.92,305a12.45,12.45,0,1,0-2.88,2.78l9.7,10.18a3.41,3.41,0,0,0-.14.55l-28.42,8.41a7.4,7.4,0,1,0-6.37,11.16Z" transform="translate(-313.4 -163.29)"/><circle class="cls-12" cx="234.38" cy="7.79" r="7.79"/><circle class="cls-13" cx="9.7" cy="222" r="8.68"/></svg>