<svg width="500" height="487" viewBox="0 0 500 487" fill="none" xmlns="http://www.w3.org/2000/svg">
<path fill-rule="evenodd" clip-rule="evenodd" d="M148.388 407.959C230.341 407.959 296.777 341.523 296.777 259.57C296.777 177.618 230.341 111.182 148.388 111.182C66.4357 111.182 0 177.618 0 259.57C0 292.019 10.415 322.034 28.0844 346.457L8.64926 418.99L91.6867 396.74C109.156 403.969 128.306 407.959 148.388 407.959Z" fill="#8575FC"/>
<path fill-rule="evenodd" clip-rule="evenodd" d="M192.645 193.62C245.842 193.62 288.967 150.495 288.967 97.2978C288.967 44.1005 245.842 0.975525 192.645 0.975525C139.447 0.975525 96.3223 44.1005 96.3223 97.2978C96.3223 118.361 103.083 137.845 114.553 153.698L101.937 200.781L155.838 186.338C167.178 191.031 179.609 193.62 192.645 193.62Z" fill="#FFE500"/>
<path fill-rule="evenodd" clip-rule="evenodd" d="M324.194 473.207C421.289 473.207 500 394.496 500 297.401C500 200.306 421.289 121.595 324.194 121.595C227.099 121.595 148.388 200.306 148.388 297.401C148.388 335.845 160.728 371.407 181.662 400.342L158.636 486.276L257.016 459.915C277.713 468.48 300.402 473.207 324.194 473.207Z" fill="#E08C29"/>
</svg>
